<svg width="65" height="843" viewBox="0 0 65 843" fill="none" xmlns="http://www.w3.org/2000/svg">
<path d="M32.0288 53.432C15.8498 53.432 2.74176 60.5361 2.74176 69.297C2.74176 78.0577 15.8498 85.162 32.0288 85.162C46.2068 85.162 58.0428 79.7088 60.7518 72.464H54.7266C52.1246 77.9397 42.9496 81.9959 32.0286 81.9959C19.0856 81.9959 8.60156 76.3061 8.60156 69.2979C8.60156 62.2893 19.0856 56.6159 32.0286 56.6159C32.1215 56.6159 32.211 56.6153 32.3037 56.6159V53.4332C32.2112 53.4327 32.1213 53.4332 32.0286 53.4332L32.0288 53.432Z" fill="black" stroke="black" stroke-width="5.4835" stroke-linecap="round"/>
<path d="M32.0288 78.569C15.8498 78.569 2.74176 85.6731 2.74176 94.434C2.74176 103.195 15.8498 110.299 32.0288 110.299C46.2068 110.299 58.0428 104.846 60.7518 97.6009H54.7266C52.1246 103.077 42.9496 107.133 32.0286 107.133C19.0856 107.133 8.60156 101.443 8.60156 94.4349C8.60156 87.4263 19.0856 81.7529 32.0286 81.7529C32.1215 81.7529 32.211 81.7523 32.3037 81.7529V78.5702C32.2112 78.5697 32.1213 78.5702 32.0286 78.5702L32.0288 78.569Z" fill="black" stroke="black" stroke-width="5.4835" stroke-linecap="round"/>
<path d="M32.0288 103.707C15.8498 103.707 2.74176 110.811 2.74176 119.572C2.74176 128.333 15.8498 135.437 32.0288 135.437C46.2068 135.437 58.0428 129.984 60.7518 122.739H54.7266C52.1246 128.215 42.9496 132.271 32.0286 132.271C19.0856 132.271 8.60156 126.581 8.60156 119.573C8.60156 112.564 19.0856 106.891 32.0286 106.891C32.1215 106.891 32.211 106.89 32.3037 106.891V103.708C32.2112 103.708 32.1213 103.708 32.0286 103.708L32.0288 103.707Z" fill="black" stroke="black" stroke-width="5.4835" stroke-linecap="round"/>
<path d="M32.0288 128.845C15.8498 128.845 2.74176 135.949 2.74176 144.71C2.74176 153.471 15.8498 160.575 32.0288 160.575C46.2068 160.575 58.0428 155.122 60.7518 147.877H54.7266C52.1246 153.353 42.9496 157.409 32.0286 157.409C19.0856 157.409 8.60156 151.719 8.60156 144.711C8.60156 137.702 19.0856 132.029 32.0286 132.029C32.1215 132.029 32.211 132.028 32.3037 132.029V128.846C32.2112 128.846 32.1213 128.846 32.0286 128.846L32.0288 128.845Z" fill="black" stroke="black" stroke-width="5.4835" stroke-linecap="round"/>
<path d="M32.0288 153.982C15.8498 153.982 2.74176 161.086 2.74176 169.847C2.74176 178.608 15.8498 185.712 32.0288 185.712C46.2068 185.712 58.0428 180.259 60.7518 173.014H54.7266C52.1246 178.49 42.9496 182.546 32.0286 182.546C19.0856 182.546 8.60156 176.856 8.60156 169.848C8.60156 162.839 19.0856 157.166 32.0286 157.166C32.1215 157.166 32.211 157.165 32.3037 157.166V153.983C32.2112 153.983 32.1213 153.983 32.0286 153.983L32.0288 153.982Z" fill="black" stroke="black" stroke-width="5.4835" stroke-linecap="round"/>
<path d="M32.0288 179.122C15.8498 179.122 2.74176 186.226 2.74176 194.987C2.74176 203.748 15.8498 210.852 32.0288 210.852C46.2068 210.852 58.0428 205.399 60.7518 198.154H54.7266C52.1246 203.63 42.9496 207.686 32.0286 207.686C19.0856 207.686 8.60156 201.996 8.60156 194.988C8.60156 187.979 19.0856 182.306 32.0286 182.306C32.1215 182.306 32.211 182.305 32.3037 182.306V179.123C32.2112 179.123 32.1213 179.123 32.0286 179.123L32.0288 179.122Z" fill="black" stroke="black" stroke-width="5.4835" stroke-linecap="round"/>
<path d="M32.0288 204.262C15.8498 204.262 2.74176 211.366 2.74176 220.127C2.74176 228.888 15.8498 235.992 32.0288 235.992C46.2068 235.992 58.0428 230.539 60.7518 223.294H54.7266C52.1246 228.77 42.9496 232.826 32.0286 232.826C19.0856 232.826 8.60156 227.136 8.60156 220.128C8.60156 213.119 19.0856 207.446 32.0286 207.446C32.1215 207.446 32.211 207.445 32.3037 207.446V204.263C32.2112 204.263 32.1213 204.263 32.0286 204.263L32.0288 204.262Z" fill="black" stroke="black" stroke-width="5.4835" stroke-linecap="round"/>
<path d="M32.0288 229.392C15.8498 229.392 2.74176 236.496 2.74176 245.257C2.74176 254.018 15.8498 261.122 32.0288 261.122C46.2068 261.122 58.0428 255.669 60.7518 248.424H54.7266C52.1246 253.9 42.9496 257.956 32.0286 257.956C19.0856 257.956 8.60156 252.266 8.60156 245.258C8.60156 238.249 19.0856 232.576 32.0286 232.576C32.1215 232.576 32.211 232.575 32.3037 232.576V229.393C32.2112 229.393 32.1213 229.393 32.0286 229.393L32.0288 229.392Z" fill="black" stroke="black" stroke-width="5.4835" stroke-linecap="round"/>
<path d="M32.0288 254.532C15.8498 254.532 2.74176 261.636 2.74176 270.397C2.74176 279.158 15.8498 286.262 32.0288 286.262C46.2068 286.262 58.0428 280.809 60.7518 273.564H54.7266C52.1246 279.04 42.9496 283.096 32.0286 283.096C19.0856 283.096 8.60156 277.406 8.60156 270.398C8.60156 263.389 19.0856 257.716 32.0286 257.716C32.1215 257.716 32.211 257.715 32.3037 257.716V254.533C32.2112 254.533 32.1213 254.533 32.0286 254.533L32.0288 254.532Z" fill="black" stroke="black" stroke-width="5.4835" stroke-linecap="round"/>
<path d="M32.0288 279.672C15.8498 279.672 2.74176 286.776 2.74176 295.537C2.74176 304.298 15.8498 311.402 32.0288 311.402C46.2068 311.402 58.0428 305.949 60.7518 298.704H54.7266C52.1246 304.18 42.9496 308.236 32.0286 308.236C19.0856 308.236 8.60156 302.546 8.60156 295.538C8.60156 288.529 19.0856 282.856 32.0286 282.856C32.1215 282.856 32.211 282.855 32.3037 282.856V279.673C32.2112 279.673 32.1213 279.673 32.0286 279.673L32.0288 279.672Z" fill="black" stroke="black" stroke-width="5.4835" stroke-linecap="round"/>
<path d="M32.0288 304.812C15.8498 304.812 2.74176 311.916 2.74176 320.677C2.74176 329.438 15.8498 336.542 32.0288 336.542C46.2068 336.542 58.0428 331.089 60.7518 323.844H54.7266C52.1246 329.32 42.9496 333.376 32.0286 333.376C19.0856 333.376 8.60156 327.686 8.60156 320.678C8.60156 313.669 19.0856 307.996 32.0286 307.996C32.1215 307.996 32.211 307.995 32.3037 307.996V304.813C32.2112 304.813 32.1213 304.813 32.0286 304.813L32.0288 304.812Z" fill="black" stroke="black" stroke-width="5.4835" stroke-linecap="round"/>
<path d="M32.0288 329.942C15.8498 329.942 2.74176 337.046 2.74176 345.807C2.74176 354.568 15.8498 361.672 32.0288 361.672C46.2068 361.672 58.0428 356.219 60.7518 348.974H54.7266C52.1246 354.45 42.9496 358.506 32.0286 358.506C19.0856 358.506 8.60156 352.816 8.60156 345.808C8.60156 338.799 19.0856 333.126 32.0286 333.126C32.1215 333.126 32.211 333.125 32.3037 333.126V329.943C32.2112 329.943 32.1213 329.943 32.0286 329.943L32.0288 329.942Z" fill="black" stroke="black" stroke-width="5.4835" stroke-linecap="round"/>
<path d="M32.0288 355.082C15.8498 355.082 2.74176 362.186 2.74176 370.947C2.74176 379.708 15.8498 386.812 32.0288 386.812C46.2068 386.812 58.0428 381.359 60.7518 374.114H54.7266C52.1246 379.59 42.9496 383.646 32.0286 383.646C19.0856 383.646 8.60156 377.956 8.60156 370.948C8.60156 363.939 19.0856 358.266 32.0286 358.266C32.1215 358.266 32.211 358.265 32.3037 358.266V355.083C32.2112 355.083 32.1213 355.083 32.0286 355.083L32.0288 355.082Z" fill="black" stroke="black" stroke-width="5.4835" stroke-linecap="round"/>
<path d="M32.0288 380.222C15.8498 380.222 2.74176 387.326 2.74176 396.087C2.74176 404.848 15.8498 411.952 32.0288 411.952C46.2068 411.952 58.0428 406.499 60.7518 399.254H54.7266C52.1246 404.73 42.9496 408.786 32.0286 408.786C19.0856 408.786 8.60156 403.096 8.60156 396.088C8.60156 389.079 19.0856 383.406 32.0286 383.406C32.1215 383.406 32.211 383.405 32.3037 383.406V380.223C32.2112 380.223 32.1213 380.223 32.0286 380.223L32.0288 380.222Z" fill="black" stroke="black" stroke-width="5.4835" stroke-linecap="round"/>
<path d="M32.0288 405.362C15.8498 405.362 2.74176 412.466 2.74176 421.227C2.74176 429.988 15.8498 437.092 32.0288 437.092C46.2068 437.092 58.0428 431.639 60.7518 424.394H54.7266C52.1246 429.87 42.9496 433.926 32.0286 433.926C19.0856 433.926 8.60156 428.236 8.60156 421.228C8.60156 414.219 19.0856 408.546 32.0286 408.546C32.1215 408.546 32.211 408.545 32.3037 408.546V405.363C32.2112 405.363 32.1213 405.363 32.0286 405.363L32.0288 405.362Z" fill="black" stroke="black" stroke-width="5.4835" stroke-linecap="round"/>
<path d="M32.0288 430.492C15.8498 430.492 2.74176 437.596 2.74176 446.357C2.74176 455.118 15.8498 462.222 32.0288 462.222C46.2068 462.222 58.0428 456.769 60.7518 449.524H54.7266C52.1246 455 42.9496 459.056 32.0286 459.056C19.0856 459.056 8.60156 453.366 8.60156 446.358C8.60156 439.349 19.0856 433.676 32.0286 433.676C32.1215 433.676 32.211 433.675 32.3037 433.676V430.493C32.2112 430.493 32.1213 430.493 32.0286 430.493L32.0288 430.492Z" fill="black" stroke="black" stroke-width="5.4835" stroke-linecap="round"/>
<path d="M32.0288 455.632C15.8498 455.632 2.74176 462.736 2.74176 471.497C2.74176 480.258 15.8498 487.362 32.0288 487.362C46.2068 487.362 58.0428 481.909 60.7518 474.664H54.7266C52.1246 480.14 42.9496 484.196 32.0286 484.196C19.0856 484.196 8.60156 478.506 8.60156 471.498C8.60156 464.489 19.0856 458.816 32.0286 458.816C32.1215 458.816 32.211 458.815 32.3037 458.816V455.633C32.2112 455.633 32.1213 455.633 32.0286 455.633L32.0288 455.632Z" fill="black" stroke="black" stroke-width="5.4835" stroke-linecap="round"/>
<path d="M32.0288 480.772C15.8498 480.772 2.74176 487.876 2.74176 496.637C2.74176 505.398 15.8498 512.502 32.0288 512.502C46.2068 512.502 58.0428 507.049 60.7518 499.804H54.7266C52.1246 505.28 42.9496 509.336 32.0286 509.336C19.0856 509.336 8.60156 503.646 8.60156 496.638C8.60156 489.629 19.0856 483.956 32.0286 483.956C32.1215 483.956 32.211 483.955 32.3037 483.956V480.773C32.2112 480.773 32.1213 480.773 32.0286 480.773L32.0288 480.772Z" fill="black" stroke="black" stroke-width="5.4835" stroke-linecap="round"/>
<path d="M32.0288 505.912C15.8498 505.912 2.74176 513.016 2.74176 521.777C2.74176 530.538 15.8498 537.642 32.0288 537.642C46.2068 537.642 58.0428 532.189 60.7518 524.944H54.7266C52.1246 530.42 42.9496 534.476 32.0286 534.476C19.0856 534.476 8.60156 528.786 8.60156 521.778C8.60156 514.769 19.0856 509.096 32.0286 509.096C32.1215 509.096 32.211 509.095 32.3037 509.096V505.913C32.2112 505.913 32.1213 505.913 32.0286 505.913L32.0288 505.912Z" fill="black" stroke="black" stroke-width="5.4835" stroke-linecap="round"/>
<path d="M32.0288 531.042C15.8498 531.042 2.74176 538.146 2.74176 546.907C2.74176 555.668 15.8498 562.772 32.0288 562.772C46.2068 562.772 58.0428 557.319 60.7518 550.074H54.7266C52.1246 555.55 42.9496 559.606 32.0286 559.606C19.0856 559.606 8.60156 553.916 8.60156 546.908C8.60156 539.899 19.0856 534.226 32.0286 534.226C32.1215 534.226 32.211 534.225 32.3037 534.226V531.043C32.2112 531.043 32.1213 531.043 32.0286 531.043L32.0288 531.042Z" fill="black" stroke="black" stroke-width="5.4835" stroke-linecap="round"/>
<path d="M32.0288 556.182C15.8498 556.182 2.74176 563.286 2.74176 572.047C2.74176 580.808 15.8498 587.912 32.0288 587.912C46.2068 587.912 58.0428 582.459 60.7518 575.214H54.7266C52.1246 580.69 42.9496 584.746 32.0286 584.746C19.0856 584.746 8.60156 579.056 8.60156 572.048C8.60156 565.039 19.0856 559.366 32.0286 559.366C32.1215 559.366 32.211 559.365 32.3037 559.366V556.183C32.2112 556.183 32.1213 556.183 32.0286 556.183L32.0288 556.182Z" fill="black" stroke="black" stroke-width="5.4835" stroke-linecap="round"/>
<path d="M32.0288 581.322C15.8498 581.322 2.74176 588.426 2.74176 597.187C2.74176 605.948 15.8498 613.052 32.0288 613.052C46.2068 613.052 58.0428 607.599 60.7518 600.354H54.7266C52.1246 605.83 42.9496 609.886 32.0286 609.886C19.0856 609.886 8.60156 604.196 8.60156 597.188C8.60156 590.179 19.0856 584.506 32.0286 584.506C32.1215 584.506 32.211 584.505 32.3037 584.506V581.323C32.2112 581.323 32.1213 581.323 32.0286 581.323L32.0288 581.322Z" fill="black" stroke="black" stroke-width="5.4835" stroke-linecap="round"/>
<path d="M32.0288 606.462C15.8498 606.462 2.74176 613.566 2.74176 622.327C2.74176 631.088 15.8498 638.192 32.0288 638.192C46.2068 638.192 58.0428 632.739 60.7518 625.494H54.7266C52.1246 630.97 42.9496 635.026 32.0286 635.026C19.0856 635.026 8.60156 629.336 8.60156 622.328C8.60156 615.319 19.0856 609.646 32.0286 609.646C32.1215 609.646 32.211 609.645 32.3037 609.646V606.463C32.2112 606.463 32.1213 606.463 32.0286 606.463L32.0288 606.462Z" fill="black" stroke="black" stroke-width="5.4835" stroke-linecap="round"/>
<path d="M32.0288 631.592C15.8498 631.592 2.74176 638.696 2.74176 647.457C2.74176 656.218 15.8498 663.322 32.0288 663.322C46.2068 663.322 58.0428 657.869 60.7518 650.624H54.7266C52.1246 656.1 42.9496 660.156 32.0286 660.156C19.0856 660.156 8.60156 654.466 8.60156 647.458C8.60156 640.449 19.0856 634.776 32.0286 634.776C32.1215 634.776 32.211 634.775 32.3037 634.776V631.593C32.2112 631.593 32.1213 631.593 32.0286 631.593L32.0288 631.592Z" fill="black" stroke="black" stroke-width="5.4835" stroke-linecap="round"/>
<path d="M32.0288 681.872C15.8498 681.872 2.74176 688.976 2.74176 697.737C2.74176 706.498 15.8498 713.602 32.0288 713.602C46.2068 713.602 58.0428 708.149 60.7518 700.904H54.7266C52.1246 706.38 42.9496 710.436 32.0286 710.436C19.0856 710.436 8.60156 704.746 8.60156 697.738C8.60156 690.729 19.0856 685.056 32.0286 685.056C32.1215 685.056 32.211 685.055 32.3037 685.056V681.873C32.2112 681.873 32.1213 681.873 32.0286 681.873L32.0288 681.872Z" fill="black" stroke="black" stroke-width="5.4835" stroke-linecap="round"/>
<path d="M32.0288 707.012C15.8498 707.012 2.74176 714.116 2.74176 722.877C2.74176 731.638 15.8498 738.742 32.0288 738.742C46.2068 738.742 58.0428 733.289 60.7518 726.044H54.7266C52.1246 731.52 42.9496 735.576 32.0286 735.576C19.0856 735.576 8.60156 729.886 8.60156 722.878C8.60156 715.869 19.0856 710.196 32.0286 710.196C32.1215 710.196 32.211 710.195 32.3037 710.196V707.013C32.2112 707.013 32.1213 707.013 32.0286 707.013L32.0288 707.012Z" fill="black" stroke="black" stroke-width="5.4835" stroke-linecap="round"/>
<path d="M32.0288 656.732C15.8498 656.732 2.74176 663.836 2.74176 672.597C2.74176 681.358 15.8498 688.462 32.0288 688.462C46.2068 688.462 58.0428 683.009 60.7518 675.764H54.7266C52.1246 681.24 42.9496 685.296 32.0286 685.296C19.0856 685.296 8.60156 679.606 8.60156 672.598C8.60156 665.589 19.0856 659.916 32.0286 659.916C32.1215 659.916 32.211 659.915 32.3037 659.916V656.733C32.2112 656.733 32.1213 656.733 32.0286 656.733L32.0288 656.732Z" fill="black" stroke="black" stroke-width="5.4835" stroke-linecap="round"/>
<path d="M32.0288 732.142C15.8498 732.142 2.74176 739.246 2.74176 748.007C2.74176 756.768 15.8498 763.872 32.0288 763.872C46.2068 763.872 58.0428 758.419 60.7518 751.174H54.7266C52.1246 756.65 42.9496 760.706 32.0286 760.706C19.0856 760.706 8.60156 755.016 8.60156 748.008C8.60156 740.999 19.0856 735.326 32.0286 735.326C32.1215 735.326 32.211 735.325 32.3037 735.326V732.143C32.2112 732.143 32.1213 732.143 32.0286 732.143L32.0288 732.142Z" fill="black" stroke="black" stroke-width="5.4835" stroke-linecap="round"/>
<path d="M32.0288 757.282C15.8498 757.282 2.74176 764.386 2.74176 773.147C2.74176 781.908 15.8498 789.012 32.0288 789.012C46.2068 789.012 58.0428 783.559 60.7518 776.314H54.7266C52.1246 781.79 42.9496 785.846 32.0286 785.846C19.0856 785.846 8.60156 780.156 8.60156 773.148C8.60156 766.139 19.0856 760.466 32.0286 760.466C32.1215 760.466 32.211 760.465 32.3037 760.466V757.283C32.2112 757.283 32.1213 757.283 32.0286 757.283L32.0288 757.282Z" fill="black" stroke="black" stroke-width="5.4835" stroke-linecap="round"/>
<path d="M32.0288 782.422C15.8498 782.422 2.74176 789.526 2.74176 798.287C2.74176 807.048 15.8498 814.152 32.0288 814.152C46.2068 814.152 58.0428 808.699 60.7518 801.454H54.7266C52.1246 806.93 42.9496 810.986 32.0286 810.986C19.0856 810.986 8.60156 805.296 8.60156 798.288C8.60156 791.279 19.0856 785.606 32.0286 785.606C32.1215 785.606 32.211 785.605 32.3037 785.606V782.423C32.2112 782.423 32.1213 782.423 32.0286 782.423L32.0288 782.422Z" fill="black" stroke="black" stroke-width="5.4835" stroke-linecap="round"/>
<path d="M32.0288 807.562C15.8498 807.562 2.74176 814.666 2.74176 823.427C2.74176 832.188 15.8498 839.292 32.0288 839.292C46.2068 839.292 58.0428 833.839 60.7518 826.594H54.7266C52.1246 832.07 42.9496 836.126 32.0286 836.126C19.0856 836.126 8.60156 830.436 8.60156 823.428C8.60156 816.419 19.0856 810.746 32.0286 810.746C32.1215 810.746 32.211 810.745 32.3037 810.746V807.563C32.2112 807.563 32.1213 807.563 32.0286 807.563L32.0288 807.562Z" fill="black" stroke="black" stroke-width="5.4835" stroke-linecap="round"/>
<path d="M32.0288 28.292C15.8498 28.292 2.74176 35.3961 2.74176 44.157C2.74176 52.9177 15.8498 60.022 32.0288 60.022C46.2068 60.022 58.0428 54.5688 60.7518 47.324H54.7266C52.1246 52.7997 42.9496 56.8559 32.0286 56.8559C19.0856 56.8559 8.60156 51.1661 8.60156 44.1579C8.60156 37.1493 19.0856 31.4759 32.0286 31.4759C32.1215 31.4759 32.211 31.4753 32.3037 31.4759V28.2932C32.2112 28.2927 32.1213 28.2932 32.0286 28.2932L32.0288 28.292Z" fill="black" stroke="black" stroke-width="5.4835" stroke-linecap="round"/>
<path d="M40.0568 10.292C42.7522 8.87288 34.2344 1.48577 24.2318 2.92767C14.2292 4.36957 2.74176 14.6407 2.74176 19.0207C2.74176 27.7814 15.8498 34.8857 32.0288 34.8857C46.2068 34.8857 58.0428 29.4325 60.7518 22.1877H54.7266C52.1246 27.6634 42.9496 31.7196 32.0286 31.7196C19.0856 31.7196 8.60156 26.0298 8.60156 19.0216C8.60156 15.5173 19.5546 6.75157 25.8006 6.24057C32.0464 5.7301 33.5851 13.4749 40.0566 13.4749C40.103 13.4749 40.1486 13.4747 40.1942 13.4747C40.2398 13.4746 40.2854 13.4746 40.3317 13.4749V10.2921C40.4072 10.6162 40.3173 10.627 40.2199 10.5514C40.1221 10.4758 40.0157 10.3136 40.0568 10.292Z" fill="black" stroke="black" stroke-width="5.4835" stroke-linecap="round"/>
</svg>
