<svg width="638" height="841" viewBox="0 0 638 841" fill="none" xmlns="http://www.w3.org/2000/svg">
<path d="M9.6223 1.5V829.44H594.216C617.231 829.44 635.686 810.9 635.686 787.885V43.055C635.686 20.04 617.231 1.5 594.216 1.5H9.6123H9.6223Z" fill="white" stroke="#030000" stroke-width="3"/>
<path d="M7.38866 5.95V833.89H591.982C614.997 833.89 633.452 815.35 633.452 792.335V47.505C633.452 24.49 614.997 5.95 591.982 5.95H7.37866H7.38866Z" stroke="#030000"/>
<path d="M5.09246 7.95998V835.9H589.686C612.701 835.9 631.156 817.36 631.156 794.345V49.515C631.156 26.5 612.701 7.95998 589.686 7.95998H5.08246H5.09246Z" stroke="#030000"/>
<path d="M0.499992 11.98V839.92H585.094C608.109 839.92 626.564 821.38 626.564 798.365V53.535C626.564 30.52 608.109 11.98 585.094 11.98H0.48999H0.499992Z" stroke="#030000"/>
<path d="M2.79699 9.97002V837.91H587.391C610.406 837.91 628.861 819.37 628.861 796.355V51.525C628.861 28.51 610.406 9.97002 587.391 9.97002H2.78699H2.79699Z" stroke="#030000"/>
</svg>
