<svg width="644" height="846" viewBox="0 0 644 846" fill="none" xmlns="http://www.w3.org/2000/svg">
<path d="M16.3461 1.5V829.44H600.936C623.951 829.44 642.406 810.9 642.406 787.885V43.055C642.406 20.04 623.951 1.5 600.936 1.5H16.3361H16.3461Z" fill="white" stroke="#030000" stroke-width="3"/>
<path d="M14.113 5.95V833.89H598.703C621.718 833.89 640.173 815.35 640.173 792.335V47.505C640.173 24.49 621.718 5.95 598.703 5.95H14.103H14.113Z" stroke="#030000"/>
<path d="M11.817 7.95999V835.9H596.407C619.422 835.9 637.877 817.36 637.877 794.345V49.515C637.877 26.5 619.422 7.95999 596.407 7.95999H11.807H11.817Z" stroke="#030000"/>
<path d="M9.52105 9.97V837.91H594.111C617.126 837.91 635.581 819.37 635.581 796.355V51.525C635.581 28.51 617.126 9.97 594.111 9.97H9.51105H9.52105Z" stroke="#030000"/>
<path d="M7.22405 11.98V839.92H591.814C614.829 839.92 633.284 821.38 633.284 798.365V53.535C633.284 30.52 614.829 11.98 591.814 11.98H7.21405H7.22405Z" stroke="#030000"/>
<path d="M1.51 16.34V844.28H586.1C609.115 844.28 627.57 825.74 627.57 802.725V57.895C627.57 34.88 609.115 16.34 586.1 16.34H1.5H1.51Z" fill="#E6BDDC" stroke="#030000" stroke-width="3" stroke-linejoin="round"/>
</svg>
